<?xml version="1.0" encoding="iso-8859-1"?>
<!-- Uploaded to: SVG Repo, www.svgrepo.com, Generator: SVG Repo Mixer Tools -->
<svg fill="#000000" height="800px" width="800px" version="1.1" id="Layer_1" xmlns="http://www.w3.org/2000/svg" xmlns:xlink="http://www.w3.org/1999/xlink" 
	 viewBox="0 0 512 512" xml:space="preserve">
<g>
	<g>
		<path d="M476.566,380.804l0.079-55.428c15.21-3.928,26.527-17.646,26.527-34.066c0-19.474-15.837-35.31-35.31-35.31
			c-9.79,0-18.653,4.008-25.053,10.47l-47.042-27.436c0.865-3.045,1.474-6.197,1.474-9.516c0-16.455-11.352-30.19-26.606-34.092
			l0.079-64.256c15.21-3.928,26.527-17.646,26.527-34.066c0-19.474-15.837-35.31-35.31-35.31c-9.79,0-18.653,4.008-25.053,10.469
			l-47.042-27.436c0.865-3.046,1.474-6.197,1.474-9.516C291.31,15.837,275.474,0,256,0c-19.474,0-35.31,15.837-35.31,35.31
			c0,3.319,0.609,6.471,1.465,9.516l-47.033,27.436c-6.4-6.462-15.263-10.469-25.053-10.469c-19.474,0-35.31,15.837-35.31,35.31
			c0,16.411,11.29,30.111,26.483,34.057v64.3c-15.192,3.946-26.483,17.646-26.483,34.057c0,3.319,0.609,6.471,1.465,9.516
			L69.191,266.47c-6.4-6.462-15.263-10.47-25.053-10.47c-19.474,0-35.31,15.837-35.31,35.31c0,16.411,11.29,30.111,26.483,34.057
			v55.473c-15.192,3.946-26.483,17.646-26.483,34.057c0,19.474,15.837,35.31,35.31,35.31c9.79,0,18.653-4.017,25.053-10.47
			l47.033,27.436c-0.856,3.046-1.465,6.197-1.465,9.516c0,19.474,15.837,35.31,35.31,35.31c19.474,0,35.31-15.837,35.31-35.31
			c0-3.328-0.618-6.488-1.474-9.543l46.998-27.463c6.409,6.488,15.281,10.522,25.097,10.522c9.79,0,18.653-4.017,25.053-10.47
			l47.033,27.436c-0.856,3.046-1.465,6.197-1.465,9.516c0,19.474,15.837,35.31,35.31,35.31c19.474,0,35.31-15.837,35.31-35.31
			c0-3.328-0.618-6.488-1.474-9.543l46.998-27.463c6.409,6.488,15.281,10.522,25.097,10.522c19.474,0,35.31-15.837,35.31-35.31
			C503.172,398.442,491.82,384.706,476.566,380.804z M247.049,380.751c-1.015,0.265-1.96,0.689-2.94,1.042
			c-0.75,0.274-1.536,0.477-2.269,0.803c-1.854,0.812-3.646,1.774-5.314,2.887c-0.653,0.433-1.218,0.971-1.845,1.448
			c-1.042,0.794-2.074,1.589-3.019,2.498c-0.68,0.644-1.271,1.359-1.898,2.057c-0.786,0.874-1.536,1.757-2.233,2.701
			c-0.556,0.759-1.059,1.545-1.554,2.348c-0.636,1.033-1.201,2.092-1.73,3.187c-0.388,0.803-0.768,1.607-1.095,2.445
			c-0.503,1.28-0.883,2.613-1.227,3.964c-0.194,0.724-0.433,1.43-0.574,2.18c-0.406,2.136-0.662,4.326-0.662,6.585
			c0,2.013,0.247,4.017,0.609,6.012c0.141,0.812,0.318,1.607,0.512,2.401c0.097,0.362,0.132,0.742,0.238,1.103l-46.936,27.427
			c-6.4-6.453-15.263-10.461-25.044-10.461c-9.799,0-18.653,4.017-25.062,10.47L78.08,424.483c0.132-0.441,0.185-0.892,0.291-1.333
			c0.168-0.697,0.327-1.386,0.45-2.101c0.371-2.022,0.627-4.07,0.627-6.153c0-2.269-0.265-4.467-0.671-6.621
			c-0.132-0.697-0.362-1.359-0.53-2.039c-0.362-1.43-0.768-2.825-1.306-4.175c-0.291-0.759-0.636-1.474-0.98-2.198
			c-0.583-1.218-1.209-2.392-1.924-3.54c-0.424-0.68-0.856-1.351-1.333-2.013c-0.803-1.112-1.686-2.154-2.613-3.16
			c-0.503-0.547-0.971-1.121-1.51-1.633c-1.183-1.139-2.454-2.163-3.787-3.125c-0.38-0.274-0.706-0.6-1.103-0.865
			c-1.739-1.165-3.602-2.172-5.544-3.01c-0.547-0.238-1.139-0.388-1.704-0.591c-1.148-0.433-2.278-0.909-3.478-1.218V325.5
			c1.201-0.309,2.331-0.786,3.478-1.218c0.565-0.212,1.156-0.353,1.704-0.591c1.942-0.847,3.805-1.845,5.544-3.019
			c0.397-0.256,0.724-0.583,1.103-0.856c1.333-0.962,2.604-1.986,3.787-3.125c0.539-0.521,1.006-1.086,1.51-1.633
			c0.927-1.015,1.81-2.048,2.613-3.169c0.477-0.653,0.909-1.324,1.333-2.013c0.715-1.139,1.342-2.313,1.924-3.531
			c0.344-0.733,0.689-1.448,0.98-2.198c0.538-1.351,0.945-2.754,1.306-4.175c0.168-0.689,0.397-1.342,0.53-2.039
			c0.406-2.154,0.671-4.352,0.671-6.621c0-2.083-0.256-4.131-0.627-6.153c-0.124-0.715-0.282-1.404-0.45-2.101
			c-0.106-0.441-0.159-0.892-0.291-1.333l46.927-27.366c6.409,6.453,15.263,10.47,25.062,10.47c2.525,0,4.988-0.291,7.362-0.803
			c0.706-0.15,1.359-0.441,2.048-0.636c1.66-0.459,3.302-0.945,4.846-1.624c0.715-0.327,1.368-0.75,2.057-1.121
			c1.465-0.768,2.904-1.571,4.237-2.534c0.565-0.406,1.068-0.883,1.607-1.333c1.404-1.13,2.719-2.339,3.928-3.672
			c0.141-0.159,0.327-0.274,0.468-0.441l22.387,11.193l22.484,11.246c-0.512,2.383-0.803,4.846-0.803,7.38
			c0,2.26,0.256,4.467,0.662,6.612c0.141,0.706,0.362,1.377,0.547,2.066c0.353,1.412,0.759,2.798,1.28,4.131
			c0.3,0.777,0.653,1.51,1.006,2.251c0.574,1.192,1.192,2.339,1.88,3.46c0.441,0.715,0.892,1.412,1.386,2.092
			c0.777,1.077,1.633,2.075,2.525,3.063c0.53,0.574,1.024,1.174,1.598,1.721c1.139,1.095,2.375,2.083,3.655,3.019
			c0.424,0.309,0.786,0.671,1.218,0.953c1.739,1.156,3.584,2.154,5.517,3.001c0.565,0.238,1.165,0.388,1.739,0.609
			c1.13,0.424,2.242,0.892,3.425,1.201L247.049,380.751z M256,247.172c-2.534,0-4.988,0.291-7.371,0.794
			c-0.706,0.159-1.368,0.45-2.066,0.644c-1.651,0.459-3.284,0.945-4.829,1.624c-0.715,0.318-1.359,0.75-2.057,1.121
			c-1.465,0.768-2.895,1.571-4.228,2.534c-0.574,0.406-1.077,0.883-1.615,1.333c-1.395,1.13-2.719,2.339-3.928,3.672
			c-0.141,0.159-0.327,0.274-0.468,0.441l-22.387-11.202l-22.475-11.237c0.503-2.383,0.803-4.846,0.803-7.38
			c0-2.269-0.265-4.467-0.671-6.621c-0.132-0.697-0.362-1.359-0.53-2.039c-0.362-1.43-0.768-2.825-1.298-4.175
			c-0.3-0.759-0.644-1.474-0.989-2.198c-0.583-1.218-1.209-2.392-1.924-3.54c-0.424-0.68-0.856-1.351-1.333-2.013
			c-0.803-1.112-1.686-2.154-2.613-3.16c-0.503-0.547-0.971-1.121-1.51-1.633c-1.183-1.139-2.454-2.163-3.787-3.125
			c-0.38-0.274-0.706-0.6-1.103-0.865c-1.739-1.165-3.602-2.172-5.544-3.01c-0.547-0.238-1.139-0.388-1.704-0.591
			c-1.148-0.433-2.278-0.909-3.478-1.218v-64.035c1.201-0.309,2.331-0.786,3.478-1.218c0.565-0.212,1.156-0.353,1.704-0.591
			c1.942-0.847,3.805-1.845,5.544-3.019c0.397-0.256,0.724-0.583,1.103-0.856c1.333-0.962,2.604-1.986,3.787-3.125
			c0.539-0.521,1.006-1.086,1.51-1.633c0.927-1.015,1.81-2.048,2.613-3.169c0.477-0.653,0.909-1.324,1.333-2.013
			c0.715-1.139,1.342-2.313,1.924-3.531c0.344-0.733,0.689-1.448,0.989-2.198c0.53-1.351,0.936-2.754,1.298-4.175
			c0.168-0.689,0.397-1.342,0.53-2.039c0.406-2.154,0.671-4.352,0.671-6.621c0-2.083-0.256-4.131-0.627-6.153
			c-0.124-0.715-0.282-1.404-0.45-2.101c-0.106-0.441-0.159-0.892-0.291-1.333l46.927-27.366c6.409,6.453,15.263,10.47,25.061,10.47
			c9.79,0,18.653-4.017,25.053-10.47l46.927,27.366c-0.124,0.441-0.177,0.892-0.291,1.333c-0.168,0.697-0.318,1.386-0.45,2.101
			c-0.371,2.022-0.618,4.07-0.618,6.153c0,2.26,0.256,4.467,0.662,6.612c0.141,0.706,0.362,1.377,0.547,2.066
			c0.353,1.412,0.759,2.798,1.28,4.131c0.3,0.777,0.653,1.51,1.006,2.251c0.574,1.192,1.192,2.339,1.88,3.46
			c0.441,0.715,0.892,1.412,1.386,2.092c0.777,1.077,1.633,2.074,2.525,3.063c0.53,0.574,1.024,1.174,1.598,1.721
			c1.139,1.095,2.375,2.083,3.655,3.019c0.424,0.309,0.786,0.671,1.218,0.953c1.739,1.156,3.584,2.154,5.517,3.001
			c0.565,0.238,1.165,0.388,1.739,0.609c1.13,0.424,2.242,0.892,3.425,1.201l-0.079,64.088c-1.015,0.265-1.96,0.689-2.94,1.042
			c-0.75,0.274-1.536,0.477-2.269,0.803c-1.854,0.812-3.646,1.774-5.314,2.887c-0.653,0.433-1.218,0.971-1.845,1.448
			c-1.042,0.794-2.074,1.589-3.019,2.498c-0.68,0.644-1.271,1.359-1.898,2.057c-0.786,0.874-1.536,1.757-2.233,2.701
			c-0.556,0.759-1.059,1.545-1.554,2.348c-0.636,1.033-1.201,2.092-1.73,3.187c-0.388,0.803-0.768,1.607-1.095,2.445
			c-0.503,1.28-0.883,2.613-1.227,3.964c-0.194,0.724-0.433,1.43-0.574,2.18c-0.406,2.136-0.662,4.326-0.662,6.585
			c0,2.516,0.282,4.961,0.786,7.336l-44.862,22.466c-0.141-0.159-0.318-0.274-0.459-0.433c-1.218-1.342-2.542-2.542-3.946-3.69
			c-0.539-0.441-1.033-0.909-1.598-1.315c-1.333-0.962-2.772-1.766-4.237-2.534c-0.697-0.362-1.342-0.794-2.048-1.112
			c-1.545-0.689-3.187-1.165-4.838-1.624c-0.697-0.194-1.351-0.494-2.057-0.644C260.979,247.464,258.525,247.172,256,247.172z
			 M458.911,380.751c-1.015,0.265-1.96,0.689-2.94,1.042c-0.75,0.274-1.536,0.477-2.269,0.803c-1.854,0.812-3.646,1.774-5.314,2.887
			c-0.653,0.433-1.218,0.971-1.845,1.448c-1.042,0.794-2.074,1.589-3.019,2.498c-0.68,0.644-1.271,1.359-1.898,2.057
			c-0.786,0.874-1.536,1.757-2.233,2.701c-0.556,0.759-1.059,1.545-1.554,2.348c-0.636,1.033-1.201,2.092-1.73,3.187
			c-0.388,0.803-0.768,1.607-1.095,2.445c-0.503,1.28-0.883,2.613-1.227,3.964c-0.194,0.724-0.433,1.43-0.574,2.18
			c-0.406,2.136-0.662,4.326-0.662,6.585c0,2.013,0.247,4.017,0.609,6.012c0.141,0.812,0.318,1.607,0.512,2.401
			c0.097,0.362,0.132,0.742,0.238,1.103l-46.936,27.427c-6.4-6.453-15.263-10.461-25.044-10.461c-9.799,0-18.653,4.017-25.062,10.47
			l-46.927-27.366c0.132-0.441,0.185-0.892,0.291-1.333c0.168-0.697,0.327-1.386,0.45-2.101c0.371-2.022,0.627-4.07,0.627-6.153
			c0-2.269-0.265-4.467-0.671-6.621c-0.132-0.697-0.362-1.359-0.53-2.039c-0.362-1.43-0.768-2.825-1.298-4.175
			c-0.3-0.759-0.644-1.474-0.989-2.198c-0.583-1.218-1.209-2.392-1.924-3.54c-0.424-0.68-0.856-1.351-1.333-2.013
			c-0.803-1.112-1.686-2.154-2.613-3.16c-0.503-0.547-0.971-1.121-1.51-1.633c-1.183-1.139-2.454-2.163-3.787-3.125
			c-0.38-0.274-0.706-0.6-1.103-0.865c-1.739-1.165-3.602-2.172-5.544-3.01c-0.547-0.238-1.139-0.388-1.704-0.591
			c-1.148-0.433-2.278-0.909-3.478-1.218v-64.035c1.201-0.309,2.33-0.786,3.478-1.218c0.565-0.212,1.156-0.353,1.704-0.591
			c1.942-0.847,3.805-1.845,5.544-3.019c0.397-0.256,0.724-0.583,1.103-0.856c1.333-0.962,2.604-1.986,3.787-3.125
			c0.539-0.521,1.006-1.086,1.51-1.633c0.927-1.015,1.81-2.048,2.613-3.169c0.477-0.653,0.909-1.324,1.333-2.013
			c0.715-1.139,1.342-2.313,1.924-3.531c0.344-0.733,0.689-1.448,0.989-2.198c0.53-1.351,0.936-2.754,1.298-4.175
			c0.168-0.689,0.397-1.342,0.53-2.039c0.406-2.154,0.671-4.352,0.671-6.621c0-2.534-0.3-4.996-0.803-7.38l44.862-22.44
			c0.141,0.168,0.327,0.282,0.468,0.441c1.209,1.333,2.534,2.542,3.928,3.672c0.538,0.45,1.042,0.927,1.607,1.333
			c1.342,0.962,2.772,1.766,4.237,2.534c0.697,0.371,1.342,0.794,2.057,1.121c1.545,0.68,3.196,1.165,4.846,1.624
			c0.697,0.194,1.342,0.485,2.048,0.636c2.383,0.512,4.838,0.803,7.371,0.803c9.79,0,18.653-4.017,25.053-10.47l46.927,27.366
			c-0.124,0.441-0.177,0.892-0.291,1.333c-0.168,0.697-0.318,1.386-0.45,2.101c-0.371,2.022-0.618,4.07-0.618,6.153
			c0,2.26,0.256,4.458,0.662,6.603c0.141,0.724,0.371,1.395,0.547,2.101c0.362,1.395,0.759,2.763,1.271,4.087
			c0.309,0.786,0.671,1.536,1.033,2.295c0.556,1.174,1.165,2.304,1.845,3.399c0.459,0.733,0.918,1.448,1.421,2.145
			c0.759,1.05,1.589,2.03,2.463,2.984c0.547,0.609,1.068,1.236,1.66,1.801c1.103,1.05,2.295,1.995,3.513,2.904
			c0.468,0.344,0.883,0.742,1.368,1.059c1.721,1.156,3.558,2.145,5.482,2.984c0.574,0.247,1.192,0.406,1.792,0.627
			c1.112,0.424,2.207,0.883,3.381,1.192L458.911,380.751z"/>
	</g>
</g>
</svg>