<?xml version="1.0" standalone="no"?>
<!DOCTYPE svg PUBLIC "-//W3C//DTD SVG 20010904//EN"
 "http://www.w3.org/TR/2001/REC-SVG-20010904/DTD/svg10.dtd">
<svg version="1.0" xmlns="http://www.w3.org/2000/svg"
 width="800.000000pt" height="600.000000pt" viewBox="0 0 800.000000 600.000000"
 preserveAspectRatio="xMidYMid meet">

<g transform="translate(0.000000,600.000000) scale(0.100000,-0.100000)"
fill="#000000" stroke="none">
<path d="M4762 4852 c-7 -5 -24 -69 -38 -143 -33 -182 -82 -389 -98 -418 -13
-23 -16 -19 -81 100 -37 68 -73 127 -79 132 -24 16 -71 3 -84 -25 -10 -22 -9
-41 8 -119 20 -88 21 -117 18 -708 -4 -654 -4 -653 -53 -725 -14 -20 -25 -44
-25 -52 0 -62 201 -304 253 -304 8 0 27 96 27 138 l0 38 193 17 c284 26 563
47 634 47 l63 0 -6 -32 c-75 -431 -210 -953 -260 -1009 -9 -11 -34 -24 -55
-29 -36 -10 -42 -8 -122 45 -98 64 -222 125 -253 125 -12 0 -27 -7 -34 -15
-19 -23 76 -143 247 -312 133 -133 146 -143 181 -143 85 0 157 91 237 299 49
127 95 304 181 699 82 373 79 366 165 479 30 40 31 43 16 66 -19 30 -187 137
-213 137 -32 -1 -62 -23 -114 -85 l-51 -60 -347 -27 c-191 -15 -373 -27 -404
-27 l-58 -1 0 85 c0 47 1 85 3 85 1 0 213 20 470 44 390 37 472 47 488 62 10
9 19 21 19 26 0 19 -94 108 -135 127 -58 27 -69 27 -222 -8 -152 -36 -367 -67
-515 -77 l-108 -7 0 97 c0 79 3 96 15 96 34 0 498 62 605 80 161 29 182 36
174 63 -12 40 -35 78 -50 84 -8 3 -12 13 -10 22 3 9 12 86 21 172 8 86 22 179
30 206 18 60 64 131 104 161 56 41 39 74 -79 156 -43 31 -90 56 -102 56 -33 0
-80 -36 -126 -96 -33 -42 -49 -53 -88 -63 -53 -13 -284 -35 -291 -27 -12 12
13 73 64 153 120 189 120 200 13 327 -77 91 -99 106 -128 88z m424 -734 c-3
-18 -15 -105 -26 -193 -11 -88 -22 -174 -25 -191 l-6 -32 -117 -21 c-157 -28
-363 -61 -384 -61 -16 0 -18 10 -18 75 0 41 4 75 10 75 11 0 465 71 466 74 1
0 4 13 8 28 6 25 2 30 -46 57 -76 44 -125 47 -249 17 -57 -14 -123 -28 -146
-32 l-43 -7 0 86 c0 80 1 85 23 90 26 7 323 44 447 56 47 5 91 9 98 10 9 1 11
-8 8 -31z"/>
<path d="M3508 4626 c-9 -22 -8 -45 8 -124 17 -89 19 -145 19 -697 0 -620 -4
-713 -46 -1015 -29 -209 -95 -498 -120 -524 -5 -6 -9 388 -9 980 l0 990 29 46
c16 25 39 49 50 53 26 8 28 43 6 88 -9 18 -51 60 -95 95 -105 85 -122 80 -213
-63 -31 -48 -34 -50 -97 -62 -116 -22 -107 -26 -179 102 -53 95 -69 115 -92
120 -37 8 -67 -1 -74 -24 -3 -11 4 -70 16 -132 19 -101 22 -158 26 -507 5
-414 -3 -607 -38 -882 -63 -503 -213 -965 -412 -1272 -78 -118 -102 -168 -82
-168 34 0 202 186 299 329 168 252 298 601 370 1001 l21 115 85 12 c47 6 110
12 140 12 l56 1 -4 -492 c-4 -529 -4 -528 -55 -528 -10 0 -74 29 -141 64 -66
35 -132 66 -146 68 -23 3 -25 0 -22 -32 2 -19 12 -44 21 -55 156 -178 299
-343 309 -356 16 -21 -2 -64 -89 -221 -68 -121 -68 -128 7 -128 39 0 42 2 100
82 288 400 459 856 524 1398 7 53 17 103 23 111 9 12 43 19 122 28 61 6 122
11 138 11 l27 0 0 -567 c0 -521 -1 -571 -18 -603 -30 -61 -57 -61 -156 -2
-132 80 -197 101 -209 69 -7 -20 410 -433 445 -441 22 -5 32 1 62 36 20 23 40
58 45 77 5 20 12 628 16 1351 7 1265 8 1316 26 1352 11 21 30 45 44 54 32 21
33 69 2 114 -25 38 -163 140 -188 140 -29 0 -66 -38 -104 -105 -20 -36 -39
-65 -43 -65 -4 0 -47 -7 -96 -15 -49 -8 -93 -12 -97 -9 -4 2 -25 37 -48 78
-36 66 -89 126 -111 126 -5 0 -15 3 -24 6 -10 4 -19 -3 -28 -20z m472 -566 l0
-240 -22 -4 c-13 -3 -59 -10 -103 -16 -44 -6 -90 -13 -102 -16 l-23 -4 0 243
0 243 98 16 c53 8 109 16 125 17 l27 1 0 -240z m-810 -60 c0 -132 -3 -240 -7
-240 -5 0 -53 -7 -108 -15 -55 -8 -108 -15 -117 -15 -17 0 -18 18 -18 240 0
188 3 242 13 246 14 5 152 21 205 23 l32 1 0 -240z m809 -626 c1 -168 3 -164
-68 -164 -35 0 -136 -15 -173 -26 -17 -5 -18 8 -18 173 0 98 3 194 6 214 l6
37 117 18 116 19 6 -60 c4 -33 7 -128 8 -211z m-809 58 l0 -158 -125 -20 -125
-20 0 167 0 167 83 10 c45 5 101 10 125 11 l42 1 0 -158z"/>
<path d="M5105 2658 c18 -108 62 -251 107 -350 32 -70 41 -76 94 -62 38 10 83
140 65 186 -12 32 -189 252 -209 260 -10 4 -28 7 -40 7 -22 1 -23 -1 -17 -41z"/>
<path d="M4869 2562 c-14 -2 -15 -9 -8 -40 5 -20 25 -111 45 -202 35 -161 60
-233 86 -242 27 -11 58 13 98 73 39 57 42 65 36 108 -8 56 -45 118 -133 220
-65 75 -89 91 -124 83z"/>
<path d="M4590 2448 c0 -13 11 -122 24 -242 26 -238 29 -246 87 -246 42 0 102
80 120 159 7 30 -1 46 -78 175 -47 77 -95 149 -106 159 -27 24 -47 21 -47 -5z"/>
<path d="M4411 2428 c-5 -13 -21 -63 -36 -112 -14 -48 -51 -135 -81 -192 -34
-65 -54 -116 -54 -136 0 -19 16 -66 35 -106 35 -75 52 -85 94 -62 49 26 114
285 115 457 1 98 -2 115 -20 139 -27 37 -42 40 -53 12z"/>
</g>
</svg>
